<svg  xmlns="http://www.w3.org/2000/svg" style="display: none">

  <symbol id="star" viewBox="0 0 24 24">
    <title>Star</title>
    <path d="M0 0h24v24H0z" fill="none"/>
    <path d="M12 17.27L18.18 21l-1.64-7.03L22 9.24l-7.19-.61L12 2 9.19 8.63 2 9.24l5.46 4.73L5.82 21z"/>
    <path d="M0 0h24v24H0z" fill="none"/>
  </symbol>

  <symbol id="chevron-down" viewBox="0 0 24 24">
    <title>Chevron down</title>
    <path d="M7.41 7.84L12 12.42l4.59-4.58L18 9.25l-6 6-6-6z"/>
    <path d="M0-.75h24v24H0z" fill="none"/>
  </symbol>

  <symbol id="running" viewBox="0 0 24 24">
    <title>Running</title>
    <path fill="none" d="M0 0h24v24H0z"/>
    <path d="M13.49 5.48c1.1 0 2-.9 2-2s-.9-2-2-2-2 .9-2 2 .9 2 2 2zm-3.6 13.9l1-4.4 2.1 2v6h2v-7.5l-2.1-2 .6-3c1.3 1.5 3.3 2.5 5.5 2.5v-2c-1.9 0-3.5-1-4.3-2.4l-1-1.6c-.4-.6-1-1-1.7-1-.3 0-.5.1-.8.1l-5.2 2.2v4.7h2v-3.4l1.8-.7-1.6 8.1-4.9-1-.4 2 7 1.4z"/>    
  </symbol>

  <symbol id="hamburger" viewBox="0 0 24 24">
    <title>Hamburger</title>
    <path d="M0 0h24v24H0z" fill="none"/>
    <path d="M3 18h18v-2H3v2zm0-5h18v-2H3v2zm0-7v2h18V6H3z"/>
  </symbol>

  <symbol id="search" viewBox="0 0 24 24">
    <title>Search</title>
    <path d="M15.5 14h-.79l-.28-.27C15.41 12.59 16 11.11 16 9.5 16 5.91 13.09 3 9.5 3S3 5.91 3 9.5 5.91 16 9.5 16c1.61 0 3.09-.59 4.23-1.57l.27.28v.79l5 4.99L20.49 19l-4.99-5zm-6 0C7.01 14 5 11.99 5 9.5S7.01 5 9.5 5 14 7.01 14 9.5 11.99 14 9.5 14z"/>
    <path d="M0 0h24v24H0z" fill="none"/>
  </symbol>

  <symbol id="cart" viewBox="0 0 24 24">
    <title>Shopping cart</title>
    <path d="M7 18c-1.1 0-1.99.9-1.99 2S5.9 22 7 22s2-.9 2-2-.9-2-2-2zM1 2v2h2l3.6 7.59-1.35 2.45c-.16.28-.25.61-.25.96 0 1.1.9 2 2 2h12v-2H7.42c-.14 0-.25-.11-.25-.25l.03-.12.9-1.63h7.45c.75 0 1.41-.41 1.75-1.03l3.58-6.49c.08-.14.12-.31.12-.48 0-.55-.45-1-1-1H5.21l-.94-2H1zm16 16c-1.1 0-1.99.9-1.99 2s.89 2 1.99 2 2-.9 2-2-.9-2-2-2z"/>
    <path d="M0 0h24v24H0z" fill="none"/>
  </symbol>

  <symbol id="user" viewBox="0 0 24 24">
    <title>User</title>
    <path d="M12 12c2.21 0 4-1.79 4-4s-1.79-4-4-4-4 1.79-4 4 1.79 4 4 4zm0 2c-2.67 0-8 1.34-8 4v2h16v-2c0-2.66-5.33-4-8-4z"/>
    <path d="M0 0h24v24H0z" fill="none"/>
  </symbol>

  <symbol id="check" viewBox="0 0 24 24">
    <path d="M0 0h24v24H0z" fill="none"/>
    <path d="M9 16.17L4.83 12l-1.42 1.41L9 19 21 7l-1.41-1.41z"/>
  </symbol>

  <symbol id="clear" viewBox="0 0 24 24">
    <path d="M19 6.41L17.59 5 12 10.59 6.41 5 5 6.41 10.59 12 5 17.59 6.41 19 12 13.41 17.59 19 19 17.59 13.41 12z"/>
    <path d="M0 0h24v24H0z" fill="none"/>
  </symbol>

  <symbol id="mail" viewBox="0 0 24 24">
    <path d="M20 4H4c-1.1 0-1.99.9-1.99 2L2 18c0 1.1.9 2 2 2h16c1.1 0 2-.9 2-2V6c0-1.1-.9-2-2-2zm0 4l-8 5-8-5V6l8 5 8-5v2z"/>
    <path d="M0 0h24v24H0z" fill="none"/>
  </symbol>

  <symbol id="bookdude" viewBox="0 0 496.592 496.592">
    <g>
      <g>
        <path d="M400.296,328v-51.696l-21.816,8.488l-0.064-0.144l-0.52-0.944c-8.36-13.016-21.88-22.072-37.104-24.832l-52.496-9.552
          v-4.144c19.632-11.4,34.008-30.848,38.488-53.84c14.544-3.008,25.512-15.912,25.512-31.336V80.984
          c0-22.328-14.624-41.8-35.84-48.136l-4-4C293.848,10.24,269.112,0,242.8,0c-54.312,0-98.504,44.184-98.504,98.504V160
          c0,15.424,10.968,28.328,25.512,31.336c4.488,22.992,18.856,42.448,38.488,53.84v4.144l-52.488,9.544
          c-15.208,2.76-28.72,11.8-37.088,24.808l-0.48,1.168l-21.944-8.536V328c-13.232,0-24,10.768-24,24v32c0,13.232,10.768,24,24,24
          v29.472l152,59.12l152-59.12V408c13.232,0,24-10.768,24-24v-32C424.296,338.768,413.528,328,400.296,328z M303.288,268.312
          l34.64,6.296c10.2,1.856,19.232,7.744,25.256,16.128l-77.4,30.096L303.288,268.312z M224.976,252.512
          c7.384,2.256,15.208,3.488,23.32,3.488s15.936-1.232,23.32-3.488L248.296,270L224.976,252.512z M236.12,280.864l-16.328,16.32
          L209.2,265.416l5.096-0.92L236.12,280.864z M282.296,264.504l5.096,0.92L276.8,297.192l-16.328-16.32L282.296,264.504z
           M328.296,173.776v-27.552c4.76,2.776,8,7.88,8,13.776S333.056,171,328.296,173.776z M168.296,173.776
          c-4.76-2.776-8-7.88-8-13.776s3.24-11,8-13.776V173.776z M168.296,120v9.136c-2.848,0.744-5.52,1.864-8,3.312V98.504
          C160.296,53.016,197.304,16,242.8,16c22.032,0,42.76,8.584,58.344,24.168l7.056,7.064l2.152,0.528
          c15.28,3.816,25.944,17.48,25.944,33.224v51.464c-2.48-1.448-5.152-2.576-8-3.312V120h-25.368c-21.68,0-42.4-10.352-55.4-27.688
          l-6.36-8.496L225.272,99.72C212.184,112.8,194.792,120,176.296,120H168.296z M184.296,176v-40.368
          c19.752-1.832,38.08-10.4,52.288-24.6l3.112-3.112c16.04,17.704,39.144,28.08,63.232,28.08h9.368v40c0,35.288-28.712,64-64,64
          C213.008,240,184.296,211.288,184.296,176z M158.664,274.608l34.64-6.296l17.504,52.52l-77.416-30.104
          C139.416,282.336,148.464,276.464,158.664,274.608z M88.296,384v-32c0-4.416,3.592-8,8-8c13.232,0,24,10.768,24,24
          s-10.768,24-24,24C91.888,392,88.296,388.416,88.296,384z M240.296,476.304l-128-49.768v-21.928c14.104-6.192,24-20.248,24-36.608
          c0-16.36-9.896-30.416-24-36.608v-31.696l128,49.776V476.304z M216.544,323.072l31.752-31.76l31.752,31.752l-31.752,12.352
          L216.544,323.072z M384.296,426.528l-128,49.768V349.472l128-49.776v31.696c-14.104,6.192-24,20.248-24,36.608
          c0,16.36,9.896,30.416,24,36.608V426.528z M408.296,384c0,4.416-3.592,8-8,8c-13.232,0-24-10.768-24-24s10.768-24,24-24
          c4.408,0,8,3.584,8,8V384z"/>
      </g>
    </g>
  </symbol>
</svg>