<svg  xmlns="http://www.w3.org/2000/svg" style="display: none">

  <symbol id="star" viewBox="0 0 24 24">
    <title>Star</title>
    <path d="M0 0h24v24H0z" fill="none"/>
    <path d="M12 17.27L18.18 21l-1.64-7.03L22 9.24l-7.19-.61L12 2 9.19 8.63 2 9.24l5.46 4.73L5.82 21z"/>
    <path d="M0 0h24v24H0z" fill="none"/>
  </symbol>

  <symbol id="chevron-down" viewBox="0 0 24 24">
    <title>Chevron down</title>
    <path d="M7.41 7.84L12 12.42l4.59-4.58L18 9.25l-6 6-6-6z"/>
    <path d="M0-.75h24v24H0z" fill="none"/>
  </symbol>

  <symbol id="running" viewBox="0 0 24 24">
    <title>Running</title>
    <path fill="none" d="M0 0h24v24H0z"/>
    <path d="M13.49 5.48c1.1 0 2-.9 2-2s-.9-2-2-2-2 .9-2 2 .9 2 2 2zm-3.6 13.9l1-4.4 2.1 2v6h2v-7.5l-2.1-2 .6-3c1.3 1.5 3.3 2.5 5.5 2.5v-2c-1.9 0-3.5-1-4.3-2.4l-1-1.6c-.4-.6-1-1-1.7-1-.3 0-.5.1-.8.1l-5.2 2.2v4.7h2v-3.4l1.8-.7-1.6 8.1-4.9-1-.4 2 7 1.4z"/>    
  </symbol>

  <symbol id="hamburger" viewBox="0 0 24 24">
    <title>Hamburger</title>
    <path d="M0 0h24v24H0z" fill="none"/>
    <path d="M3 18h18v-2H3v2zm0-5h18v-2H3v2zm0-7v2h18V6H3z"/>
  </symbol>

  <symbol id="search" viewBox="0 0 24 24">
    <title>Search</title>
    <path d="M15.5 14h-.79l-.28-.27C15.41 12.59 16 11.11 16 9.5 16 5.91 13.09 3 9.5 3S3 5.91 3 9.5 5.91 16 9.5 16c1.61 0 3.09-.59 4.23-1.57l.27.28v.79l5 4.99L20.49 19l-4.99-5zm-6 0C7.01 14 5 11.99 5 9.5S7.01 5 9.5 5 14 7.01 14 9.5 11.99 14 9.5 14z"/>
    <path d="M0 0h24v24H0z" fill="none"/>
  </symbol>

  <symbol id="cart" viewBox="0 0 24 24">
    <title>Shopping cart</title>
    <path d="M7 18c-1.1 0-1.99.9-1.99 2S5.9 22 7 22s2-.9 2-2-.9-2-2-2zM1 2v2h2l3.6 7.59-1.35 2.45c-.16.28-.25.61-.25.96 0 1.1.9 2 2 2h12v-2H7.42c-.14 0-.25-.11-.25-.25l.03-.12.9-1.63h7.45c.75 0 1.41-.41 1.75-1.03l3.58-6.49c.08-.14.12-.31.12-.48 0-.55-.45-1-1-1H5.21l-.94-2H1zm16 16c-1.1 0-1.99.9-1.99 2s.89 2 1.99 2 2-.9 2-2-.9-2-2-2z"/>
    <path d="M0 0h24v24H0z" fill="none"/>
  </symbol>

  <symbol id="user" viewBox="0 0 24 24">
    <title>User</title>
    <path d="M12 12c2.21 0 4-1.79 4-4s-1.79-4-4-4-4 1.79-4 4 1.79 4 4 4zm0 2c-2.67 0-8 1.34-8 4v2h16v-2c0-2.66-5.33-4-8-4z"/>
    <path d="M0 0h24v24H0z" fill="none"/>
  </symbol>

  <symbol id="check" viewBox="0 0 24 24">
    <path d="M0 0h24v24H0z" fill="none"/>
    <path d="M9 16.17L4.83 12l-1.42 1.41L9 19 21 7l-1.41-1.41z"/>
  </symbol>

  <symbol id="clear" viewBox="0 0 24 24">
    <path d="M19 6.41L17.59 5 12 10.59 6.41 5 5 6.41 10.59 12 5 17.59 6.41 19 12 13.41 17.59 19 19 17.59 13.41 12z"/>
    <path d="M0 0h24v24H0z" fill="none"/>
  </symbol>

  <symbol id="mail" viewBox="0 0 24 24">
    <path d="M20 4H4c-1.1 0-1.99.9-1.99 2L2 18c0 1.1.9 2 2 2h16c1.1 0 2-.9 2-2V6c0-1.1-.9-2-2-2zm0 4l-8 5-8-5V6l8 5 8-5v2z"/>
    <path d="M0 0h24v24H0z" fill="none"/>
  </symbol>

  <symbol id="code" viewBox="0 0 24 24">
    <path fill="none" d="M0 0h24v24H0V0z"/>
    <path d="M9.4 16.6L4.8 12l4.6-4.6L8 6l-6 6 6 6 1.4-1.4zm5.2 0l4.6-4.6-4.6-4.6L16 6l6 6-6 6-1.4-1.4z"/>
  </symbol>

  <symbol id="upload" viewBox="0 0 24 24">
    <path d="M0 0h24v24H0z" fill="none"/>
    <path d="M19.35 10.04C18.67 6.59 15.64 4 12 4 9.11 4 6.6 5.64 5.35 8.04 2.34 8.36 0 10.91 0 14c0 3.31 2.69 6 6 6h13c2.76 0 5-2.24 5-5 0-2.64-2.05-4.78-4.65-4.96zM14 13v4h-4v-4H7l5-5 5 5h-3z"/>
  </symbol>

  <symbol id="library" viewBox="0 0 24 24">
    <path d="M0 0h24v24H0z" fill="none"/><path d="M12 11.55C9.64 9.35 6.48 8 3 8v11c3.48 0 6.64 1.35 9 3.55 2.36-2.19 5.52-3.55 9-3.55V8c-3.48 0-6.64 1.35-9 3.55zM12 8c1.66 0 3-1.34 3-3s-1.34-3-3-3-3 1.34-3 3 1.34 3 3 3z"/>
  </symbol>
</svg>